<?xml version="1.0" encoding="UTF-8" standalone="no"?>
<!-- Generator: Adobe Illustrator 21.0.0, SVG Export Plug-In . SVG Version: 6.00 Build 0)  -->

<svg
   xmlns:dc="http://purl.org/dc/elements/1.1/"
   xmlns:cc="http://creativecommons.org/ns#"
   xmlns:rdf="http://www.w3.org/1999/02/22-rdf-syntax-ns#"
   xmlns:svg="http://www.w3.org/2000/svg"
   xmlns="http://www.w3.org/2000/svg"
   xmlns:sodipodi="http://sodipodi.sourceforge.net/DTD/sodipodi-0.dtd"
   xmlns:inkscape="http://www.inkscape.org/namespaces/inkscape"
   version="1.1"
   id="Layer_1"
   x="0px"
   y="0px"
   viewBox="0 0 165.53751 76.737381"
   xml:space="preserve"
   sodipodi:docname="atacadao-logo.svg"
   inkscape:export-filename="C:\Users\suitedoalex\sites\svg\atacadao-logo-7.png"
   inkscape:export-xdpi="28.99645"
   inkscape:export-ydpi="28.99645"
   width="165.53751"
   height="76.737381"
   inkscape:version="0.92.2 (5c3e80d, 2017-08-06)"><metadata
     id="metadata65"><rdf:RDF><cc:Work
         rdf:about=""><dc:format>image/svg+xml</dc:format><dc:type
           rdf:resource="http://purl.org/dc/dcmitype/StillImage" /><dc:title></dc:title></cc:Work></rdf:RDF></metadata><defs
     id="defs63" /><sodipodi:namedview
     pagecolor="#ffffff"
     bordercolor="#666666"
     borderopacity="1"
     objecttolerance="10"
     gridtolerance="10"
     guidetolerance="10"
     inkscape:pageopacity="0"
     inkscape:pageshadow="2"
     inkscape:window-width="1600"
     inkscape:window-height="837"
     id="namedview61"
     showgrid="false"
     fit-margin-top="0"
     fit-margin-left="0"
     fit-margin-right="0"
     fit-margin-bottom="0"
     inkscape:zoom="1.9096386"
     inkscape:cx="82.8"
     inkscape:cy="53.537381"
     inkscape:window-x="-8"
     inkscape:window-y="-8"
     inkscape:window-maximized="1"
     inkscape:current-layer="Layer_1" /><style
     type="text/css"
     id="style2">
	.st0{fill:#F86302;}
	.st1{fill:#009E61;}
	.st2{fill:#FFA076;stroke:#FFA076;stroke-width:0.6;stroke-miterlimit:10;}
	.st3{fill:#932D00;}
	.st4{fill:#AF3D04;}
</style><path
     class="st0"
     d="m 34.9,32.6 v 3 c -0.2,3.1 -2.3,3.5 -5.3,3.7 v 7.1 h 20.3 v -7.1 c -3,-0.2 -5.1,-0.6 -5.3,-3.7 v -3 z"
     id="path4"
     inkscape:connector-curvature="0"
     style="fill:#f86302" /><path
     class="st1"
     d="m 0.5,20.1 h 49.6 c 0.3,0 0.5,0.3 0.5,0.6 v 0 c 0,0.3 -0.2,0.6 -0.5,0.6 H 0.5 C 0.2,21.3 0,21 0,20.7 v 0 c 0,-0.4 0.2,-0.6 0.5,-0.6"
     id="path6"
     inkscape:connector-curvature="0"
     style="fill:#009e61" /><path
     class="st1"
     d="m 0.5,23 h 49.6 c 0.3,0 0.5,0.3 0.5,0.6 v 0 c 0,0.3 -0.2,0.6 -0.5,0.6 H 0.5 C 0.2,24.2 0,23.9 0,23.6 v 0 C 0,23.3 0.2,23 0.5,23"
     id="path8"
     inkscape:connector-curvature="0"
     style="fill:#009e61" /><path
     class="st1"
     d="m 0.5,25.9 h 49.6 c 0.3,0 0.5,0.3 0.5,0.6 v 0 c 0,0.3 -0.2,0.6 -0.5,0.6 H 0.5 C 0.2,27.1 0,26.8 0,26.5 v 0 c 0,-0.3 0.2,-0.6 0.5,-0.6"
     id="path10"
     inkscape:connector-curvature="0"
     style="fill:#009e61" /><path
     class="st1"
     d="m 0.5,28.9 h 49.6 c 0.3,0 0.5,0.3 0.5,0.6 v 0 c 0,0.3 -0.2,0.6 -0.5,0.6 H 0.5 C 0.2,30.1 0,29.8 0,29.5 v 0 c 0,-0.4 0.2,-0.6 0.5,-0.6"
     id="path12"
     inkscape:connector-curvature="0"
     style="fill:#009e61" /><path
     class="st1"
     d="m 0.5,31.8 h 49.6 c 0.3,0 0.5,0.3 0.5,0.6 v 0 c 0,0.3 -0.2,0.6 -0.5,0.6 H 0.5 C 0.2,33 0,32.7 0,32.4 v 0 C 0,32 0.2,31.8 0.5,31.8"
     id="path14"
     inkscape:connector-curvature="0"
     style="fill:#009e61" /><path
     class="st0"
     d="m 0.8,39.3 v 7.1 h 20.5 v -7.1 c -1.5,0 -2.4,-0.1 -3,-0.7 -0.7,-0.5 -0.6,-1.2 0.1,-2.3 L 35,11.9 V 20 h 9.7 V 0 H 32.9 L 9,34.8 c -2.4,3.7 -3.3,4.6 -8.2,4.5"
     id="path16"
     inkscape:connector-curvature="0"
     style="fill:#f86302" /><path
     class="st1"
     d="m 159.1,21.6 c -0.9,0 -1.6,0.4 -2.2,1.2 -0.6,0.8 -1.1,2 -1.6,3.7 -0.5,1.7 -0.6,3 -0.4,3.8 0.2,0.8 0.7,1.2 1.6,1.2 0.9,0 1.6,-0.4 2.2,-1.2 0.6,-0.8 1.1,-2 1.6,-3.7 0.5,-1.7 0.6,-3 0.4,-3.8 -0.2,-0.8 -0.7,-1.2 -1.6,-1.2 m -8.9,4.9 c 0.6,-2.1 1.7,-3.8 3.4,-5 1.7,-1.2 3.7,-1.8 6,-1.8 2.3,0 4,0.6 5,1.8 1,1.2 1.2,2.9 0.6,5 -0.6,2.1 -1.7,3.8 -3.4,5 -1.7,1.2 -3.7,1.8 -6,1.8 -2.3,0 -4,-0.6 -5,-1.8 -0.9,-1.2 -1.1,-2.9 -0.6,-5 z"
     id="path18"
     inkscape:connector-curvature="0"
     style="fill:#009e61" /><path
     class="st1"
     d="m 143.9,27 -0.1,-3.9 -2.2,3.9 z m -2.1,6 0.5,-1.8 h 0.6 c 0.5,0 0.8,0 0.9,-0.1 0.1,-0.1 0.2,-0.2 0.2,-0.3 0,-0.1 0,-0.2 0.1,-0.3 0,-0.1 0,-0.2 0,-0.3 L 144,28.8 h -3.5 l -0.7,1.2 c -0.1,0.2 -0.2,0.3 -0.3,0.4 -0.1,0.1 -0.1,0.2 -0.1,0.3 0,0.1 0,0.2 0.2,0.3 0.1,0.1 0.4,0.1 0.6,0.1 h 0.6 l -0.5,1.8 h -5.8 l 0.5,-1.8 h 0.5 c 0.3,0 0.6,-0.1 0.9,-0.3 0.3,-0.2 0.6,-0.5 0.9,-1 l 6,-9.8 h 4.7 l 0.4,9.8 c 0,0.6 0.1,1 0.3,1.2 0.1,0.1 0.4,0.2 0.8,0.2 h 0.7 l -0.5,1.8 c 0,0 -7.9,0 -7.9,0 z"
     id="path20"
     inkscape:connector-curvature="0"
     style="fill:#009e61" /><path
     class="st1"
     d="m 131,20 c 2.6,0 4.4,0.5 5.3,1.6 1,1.1 1.2,2.7 0.6,4.9 -0.6,2.2 -1.7,3.8 -3.2,4.9 -1.5,1.1 -3.6,1.6 -6.2,1.6 h -7 l 0.5,-1.8 h 0.7 c 0.4,0 0.7,-0.1 0.9,-0.2 0.2,-0.1 0.3,-0.4 0.4,-0.9 V 30 l 1.9,-7.1 c 0.1,-0.5 0.2,-0.8 0.1,-0.9 -0.1,-0.1 -0.4,-0.2 -0.8,-0.2 h -0.6 l 0.5,-1.8 z m -3.9,11.1 h 1 c 0.9,0 1.7,-0.4 2.3,-1.1 0.6,-0.7 1.1,-1.9 1.6,-3.5 0.4,-1.7 0.6,-2.8 0.3,-3.5 -0.2,-0.7 -0.8,-1.1 -1.7,-1.1 h -1 z"
     id="path22"
     inkscape:connector-curvature="0"
     style="fill:#009e61" /><path
     class="st1"
     d="M 114.1,27 114,23.1 111.8,27 Z m -2.2,6 0.5,-1.8 h 0.6 c 0.5,0 0.8,0 0.9,-0.1 0.1,-0.1 0.2,-0.2 0.2,-0.3 0,-0.1 0,-0.2 0.1,-0.3 0,-0.1 0,-0.2 0,-0.3 l -0.1,-1.4 h -3.5 l -0.7,1.2 c -0.1,0.2 -0.2,0.3 -0.3,0.4 -0.1,0.1 -0.1,0.2 -0.1,0.3 0,0.1 0,0.2 0.2,0.3 0.1,0.1 0.4,0.1 0.6,0.1 h 0.6 l -0.5,1.8 h -5.8 l 0.5,-1.8 h 0.5 c 0.3,0 0.6,-0.1 0.9,-0.3 0.3,-0.2 0.6,-0.5 0.9,-1 l 6,-9.8 h 4.7 l 0.4,9.8 c 0,0.6 0.1,1 0.3,1.2 0.1,0.1 0.4,0.2 0.8,0.2 h 0.7 l -0.5,1.8 c 0,0 -7.9,0 -7.9,0 z"
     id="path24"
     inkscape:connector-curvature="0"
     style="fill:#009e61" /><path
     class="st1"
     d="m 106.4,28.1 c -0.5,1.7 -1.4,3.1 -2.7,4 -1.3,0.9 -2.9,1.4 -4.8,1.4 -2.2,0 -3.8,-0.6 -4.7,-1.8 -0.9,-1.2 -1,-2.9 -0.4,-5.1 0.6,-2.1 1.6,-3.7 3.2,-5 1.6,-1.3 3.4,-1.9 5.5,-1.9 0.7,0 1.3,0.1 1.9,0.2 0.6,0.1 1.1,0.4 1.5,0.7 l 0.5,-0.7 h 2.1 l -1.4,5.3 h -2.3 c 0.1,-1.2 0,-2.2 -0.3,-2.7 -0.3,-0.6 -0.9,-0.8 -1.7,-0.8 -0.9,0 -1.7,0.4 -2.3,1.2 -0.6,0.8 -1.2,2 -1.6,3.7 -0.5,1.8 -0.6,3 -0.4,3.8 0.2,0.8 0.8,1.2 1.8,1.2 0.9,0 1.7,-0.3 2.4,-0.9 0.7,-0.6 1.3,-1.5 1.6,-2.5 h 2.1 z"
     id="path26"
     inkscape:connector-curvature="0"
     style="fill:#009e61" /><path
     class="st1"
     d="m 87,27 -0.2,-4 -2.2,3.9 H 87 Z m -2.1,6 0.5,-1.8 H 86 c 0.5,0 0.8,0 0.9,-0.1 0.1,-0.1 0.2,-0.2 0.2,-0.3 0,-0.1 0,-0.2 0.1,-0.3 0,-0.1 0,-0.2 0,-0.3 l -0.1,-1.4 h -3.5 l -0.8,1.3 c -0.1,0.2 -0.2,0.3 -0.3,0.4 -0.1,0.1 -0.1,0.2 -0.1,0.3 0,0.1 0,0.2 0.2,0.3 0.1,0.1 0.4,0.1 0.6,0.1 h 0.6 L 83.3,33 H 77.5 L 78,31.2 h 0.5 c 0.3,0 0.6,-0.1 0.9,-0.3 0.3,-0.2 0.6,-0.5 0.9,-1 l 6,-9.8 H 91 l 0.4,9.8 c 0,0.6 0.1,1 0.3,1.2 0.1,0.1 0.4,0.2 0.8,0.2 h 0.7 l -0.5,1.8 h -7.8 z"
     id="path28"
     inkscape:connector-curvature="0"
     style="fill:#009e61" /><path
     class="st1"
     d="m 72.3,22.1 c -0.7,0 -1.3,0.2 -1.8,0.7 -0.5,0.5 -0.9,1.2 -1.1,2.1 V 25 h -1.9 l 1.3,-4.9 H 82.4 L 81.1,25 h -1.9 v -0.1 c 0.2,-0.9 0.2,-1.6 0,-2.1 -0.2,-0.5 -0.7,-0.7 -1.5,-0.7 h -0.6 l -2.1,8 c -0.1,0.5 -0.1,0.8 0,0.9 0.1,0.1 0.4,0.2 0.8,0.2 h 1.1 L 76.4,33 h -8.5 l 0.5,-1.8 h 1 c 0.4,0 0.7,-0.1 0.9,-0.2 0.2,-0.1 0.3,-0.4 0.5,-1 l 2.1,-8 h -0.6 z"
     id="path30"
     inkscape:connector-curvature="0"
     style="fill:#009e61" /><path
     class="st1"
     d="M 61.4,27 61.3,23.1 59.1,27 Z m -2.1,6 0.5,-1.8 h 0.6 c 0.5,0 0.8,0 0.9,-0.1 0.1,-0.1 0.2,-0.2 0.2,-0.3 0,-0.1 0,-0.2 0.1,-0.3 0,-0.1 0,-0.2 0,-0.3 L 61.5,28.8 H 58 L 57.3,30 c -0.1,0.2 -0.2,0.3 -0.3,0.4 -0.1,0.1 -0.1,0.2 -0.1,0.3 0,0.1 0,0.2 0.2,0.3 0.1,0.1 0.4,0.1 0.6,0.1 h 0.6 L 57.8,33 H 52 l 0.5,-1.8 H 53 c 0.3,0 0.6,-0.1 0.9,-0.3 0.3,-0.2 0.6,-0.5 0.9,-1 l 6,-9.8 h 4.7 l 0.4,9.8 c 0,0.6 0.1,1 0.3,1.2 0.1,0.1 0.4,0.2 0.8,0.2 h 0.7 l -0.5,1.8 h -7.9 z"
     id="path32"
     inkscape:connector-curvature="0"
     style="fill:#009e61" /><polygon
     class="st1"
     points="148.4,19.1 143.6,19.1 144.3,17.9 149.1,17.9 "
     id="polygon34"
     style="fill:#009e61"
     transform="translate(-0.2,-0.3)" /><g
     id="g38"
     transform="translate(-0.2,-0.3)"><path
       class="st2"
       d="M 2.4,45.5 H 1.9 v -5.1 h 1.8 c 4,0 6.6,-4.7 6.7,-4.7 L 33.9,1.8 h 9.7 V 2.1 H 34.4 L 11,35.8 C 10.9,36 8.3,40.7 4,40.7 H 2.4 Z"
       id="path36"
       inkscape:connector-curvature="0"
       style="fill:#ffa076;stroke:#ffa076;stroke-width:0.60000002;stroke-miterlimit:10" /></g><path
     class="st2"
     d="m 43.7,33.4 h -8 v 3.2 c -0.2,3 -2.2,3.3 -5.1,3.5 h -0.2 v 5 h 0.4 v -4.7 c 2.9,-0.2 5.1,-0.7 5.3,-3.9 v -2.8 h 7.6 z"
     id="path40"
     inkscape:connector-curvature="0"
     style="fill:#ffa076;stroke:#ffa076;stroke-width:0.60000002;stroke-miterlimit:10" /><polyline
     class="st3"
     points="44.9,20.3 43.7,20.3 43.7,1.8 44.9,0.3 "
     id="polyline42"
     style="fill:#932d00"
     transform="translate(-0.2,-0.3)" /><polygon
     class="st3"
     points="35.2,20.3 44.9,20.3 44.9,19.1 36.2,19.1 "
     id="polygon44"
     style="fill:#932d00"
     transform="translate(-0.2,-0.3)" /><polygon
     class="st3"
     points="29.8,46.7 50.1,46.7 50.1,45.5 30.6,45.5 "
     id="polygon46"
     style="fill:#932d00"
     transform="translate(-0.2,-0.3)" /><polygon
     class="st3"
     points="48.9,40.3 48.9,46.6 50.1,46.7 50.1,39.6 "
     id="polygon48"
     style="fill:#932d00"
     transform="translate(-0.2,-0.3)" /><polygon
     class="st3"
     points="1,46.7 21.5,46.7 21.5,45.5 1.9,45.5 "
     id="polygon50"
     style="fill:#932d00"
     transform="translate(-0.2,-0.3)" /><polygon
     class="st4"
     points="20.3,40.3 20.3,46.6 21.5,46.7 21.5,39.6 "
     id="polygon52"
     style="fill:#af3d04"
     transform="translate(-0.2,-0.3)" /><g
     id="g58"
     transform="translate(-0.2,-0.3)"><polyline
       class="st3"
       points="35.2,10.5 35.2,12.2 18.5,36.7 17.5,36.7  "
       id="polyline54"
       style="fill:#932d00" /><path
       class="st3"
       d="m 17.6,36.5 c 0,0 -2.2,3.1 2.7,3.8 0.7,-0.4 1.2,-0.7 1.2,-0.7 0,0 -5.1,0 -3,-2.9 1.4,-2.8 -0.9,-0.2 -0.9,-0.2 z"
       id="path56"
       inkscape:connector-curvature="0"
       style="fill:#932d00" /></g><text
     xml:space="preserve"
     style="font-style:normal;font-weight:normal;font-size:13.33333302px;line-height:1.25;font-family:sans-serif;letter-spacing:0px;word-spacing:0px;fill:#000000;fill-opacity:1;stroke:none"
     x="7.1312304"
     y="76.548576"
     id="text69"><tspan
       sodipodi:role="line"
       id="tspan67"
       x="7.1312304"
       y="76.548576"></tspan></text>
</svg>